<mxfile host="app.diagrams.net" modified="2023-09-02T06:36:32.379Z" agent="Mozilla/5.0 (Windows NT 10.0; Win64; x64) AppleWebKit/537.36 (KHTML, like Gecko) Chrome/118.0.0.0 Safari/537.36" etag="a3BS37mAQaeGYwPA5rjZ" version="21.7.1" type="device">
  <diagram name="Page-1" id="zTHInDyFUh_z3x6XIuqw">
    <mxGraphModel dx="2100" dy="1238" grid="1" gridSize="10" guides="1" tooltips="1" connect="1" arrows="1" fold="1" page="1" pageScale="1" pageWidth="3300" pageHeight="4681" background="#ffffff" math="0" shadow="0">
      <root>
        <mxCell id="0" />
        <mxCell id="1" parent="0" />
        <mxCell id="hoeMF-6ozECQFNes8gVZ-10" style="edgeStyle=orthogonalEdgeStyle;rounded=0;orthogonalLoop=1;jettySize=auto;html=1;exitX=0.5;exitY=0;exitDx=0;exitDy=0;entryX=0;entryY=0.5;entryDx=0;entryDy=0;" edge="1" parent="1" source="hoeMF-6ozECQFNes8gVZ-1" target="hoeMF-6ozECQFNes8gVZ-3">
          <mxGeometry relative="1" as="geometry" />
        </mxCell>
        <mxCell id="hoeMF-6ozECQFNes8gVZ-1" value="2-1mux" style="shape=trapezoid;perimeter=trapezoidPerimeter;whiteSpace=wrap;html=1;fixedSize=1;direction=south;" vertex="1" parent="1">
          <mxGeometry x="80" y="1077.5" width="40" height="70" as="geometry" />
        </mxCell>
        <mxCell id="hoeMF-6ozECQFNes8gVZ-19" style="edgeStyle=orthogonalEdgeStyle;rounded=0;orthogonalLoop=1;jettySize=auto;html=1;exitX=1;exitY=0.5;exitDx=0;exitDy=0;entryX=-0.097;entryY=0.709;entryDx=0;entryDy=0;entryPerimeter=0;" edge="1" parent="1" source="hoeMF-6ozECQFNes8gVZ-3" target="hoeMF-6ozECQFNes8gVZ-17">
          <mxGeometry relative="1" as="geometry" />
        </mxCell>
        <mxCell id="hoeMF-6ozECQFNes8gVZ-3" value="PC" style="rounded=0;whiteSpace=wrap;html=1;" vertex="1" parent="1">
          <mxGeometry x="210" y="1060" width="20" height="105" as="geometry" />
        </mxCell>
        <mxCell id="hoeMF-6ozECQFNes8gVZ-5" value="pre_read" style="rounded=0;whiteSpace=wrap;html=1;" vertex="1" parent="1">
          <mxGeometry x="320" y="990" width="97.5" height="20" as="geometry" />
        </mxCell>
        <mxCell id="hoeMF-6ozECQFNes8gVZ-12" style="edgeStyle=orthogonalEdgeStyle;rounded=0;orthogonalLoop=1;jettySize=auto;html=1;exitX=1;exitY=0.5;exitDx=0;exitDy=0;entryX=0;entryY=0.5;entryDx=0;entryDy=0;" edge="1" parent="1" source="hoeMF-6ozECQFNes8gVZ-7" target="hoeMF-6ozECQFNes8gVZ-5">
          <mxGeometry relative="1" as="geometry" />
        </mxCell>
        <mxCell id="hoeMF-6ozECQFNes8gVZ-7" value="ROM" style="rounded=0;whiteSpace=wrap;html=1;" vertex="1" parent="1">
          <mxGeometry x="175" y="970" width="90" height="60" as="geometry" />
        </mxCell>
        <mxCell id="hoeMF-6ozECQFNes8gVZ-11" value="" style="endArrow=classic;html=1;rounded=0;entryX=0.162;entryY=1.044;entryDx=0;entryDy=0;entryPerimeter=0;" edge="1" parent="1" target="hoeMF-6ozECQFNes8gVZ-7">
          <mxGeometry width="50" height="50" relative="1" as="geometry">
            <mxPoint x="190" y="1110" as="sourcePoint" />
            <mxPoint x="180" y="1160" as="targetPoint" />
          </mxGeometry>
        </mxCell>
        <mxCell id="hoeMF-6ozECQFNes8gVZ-13" value="addr" style="text;html=1;align=center;verticalAlign=middle;resizable=0;points=[];autosize=1;strokeColor=none;fillColor=none;" vertex="1" parent="1">
          <mxGeometry x="170" y="1010" width="50" height="30" as="geometry" />
        </mxCell>
        <mxCell id="hoeMF-6ozECQFNes8gVZ-14" value="rd" style="text;html=1;align=center;verticalAlign=middle;resizable=0;points=[];autosize=1;strokeColor=none;fillColor=none;" vertex="1" parent="1">
          <mxGeometry x="235" y="985" width="30" height="30" as="geometry" />
        </mxCell>
        <mxCell id="hoeMF-6ozECQFNes8gVZ-15" value="pc_in" style="text;html=1;align=center;verticalAlign=middle;resizable=0;points=[];autosize=1;strokeColor=none;fillColor=none;" vertex="1" parent="1">
          <mxGeometry x="175" y="1110" width="50" height="30" as="geometry" />
        </mxCell>
        <mxCell id="hoeMF-6ozECQFNes8gVZ-17" value="" style="rounded=0;whiteSpace=wrap;html=1;" vertex="1" parent="1">
          <mxGeometry x="470" y="730" width="30" height="540" as="geometry" />
        </mxCell>
        <mxCell id="hoeMF-6ozECQFNes8gVZ-18" value="" style="endArrow=classic;html=1;rounded=0;entryX=0;entryY=0.5;entryDx=0;entryDy=0;" edge="1" parent="1" target="hoeMF-6ozECQFNes8gVZ-17">
          <mxGeometry width="50" height="50" relative="1" as="geometry">
            <mxPoint x="420" y="1000" as="sourcePoint" />
            <mxPoint x="440" y="1020" as="targetPoint" />
          </mxGeometry>
        </mxCell>
        <mxCell id="hoeMF-6ozECQFNes8gVZ-21" style="edgeStyle=orthogonalEdgeStyle;rounded=0;orthogonalLoop=1;jettySize=auto;html=1;exitX=0.5;exitY=0;exitDx=0;exitDy=0;" edge="1" parent="1" source="hoeMF-6ozECQFNes8gVZ-20">
          <mxGeometry relative="1" as="geometry">
            <mxPoint x="470" y="1240" as="targetPoint" />
          </mxGeometry>
        </mxCell>
        <mxCell id="hoeMF-6ozECQFNes8gVZ-20" value="+" style="shape=trapezoid;perimeter=trapezoidPerimeter;whiteSpace=wrap;html=1;fixedSize=1;direction=south;" vertex="1" parent="1">
          <mxGeometry x="380" y="1200" width="40" height="80" as="geometry" />
        </mxCell>
        <mxCell id="hoeMF-6ozECQFNes8gVZ-22" value="" style="endArrow=classic;html=1;rounded=0;entryX=0.25;entryY=1;entryDx=0;entryDy=0;" edge="1" parent="1" target="hoeMF-6ozECQFNes8gVZ-20">
          <mxGeometry width="50" height="50" relative="1" as="geometry">
            <mxPoint x="330" y="1120" as="sourcePoint" />
            <mxPoint x="250" y="1210" as="targetPoint" />
            <Array as="points">
              <mxPoint x="330" y="1220" />
            </Array>
          </mxGeometry>
        </mxCell>
        <mxCell id="hoeMF-6ozECQFNes8gVZ-23" value="" style="endArrow=classic;html=1;rounded=0;entryX=0.75;entryY=1;entryDx=0;entryDy=0;" edge="1" parent="1" target="hoeMF-6ozECQFNes8gVZ-20">
          <mxGeometry width="50" height="50" relative="1" as="geometry">
            <mxPoint x="330" y="1260" as="sourcePoint" />
            <mxPoint x="290" y="1260" as="targetPoint" />
          </mxGeometry>
        </mxCell>
        <mxCell id="hoeMF-6ozECQFNes8gVZ-24" value="4" style="text;html=1;align=center;verticalAlign=middle;resizable=0;points=[];autosize=1;strokeColor=none;fillColor=none;" vertex="1" parent="1">
          <mxGeometry x="335" y="1240" width="30" height="30" as="geometry" />
        </mxCell>
        <mxCell id="hoeMF-6ozECQFNes8gVZ-25" value="pc_plus4_f" style="text;html=1;align=center;verticalAlign=middle;resizable=0;points=[];autosize=1;strokeColor=none;fillColor=none;" vertex="1" parent="1">
          <mxGeometry x="400" y="1210" width="80" height="30" as="geometry" />
        </mxCell>
        <mxCell id="hoeMF-6ozECQFNes8gVZ-26" value="" style="endArrow=classic;html=1;rounded=0;entryX=0.75;entryY=1;entryDx=0;entryDy=0;" edge="1" parent="1" target="hoeMF-6ozECQFNes8gVZ-1">
          <mxGeometry width="50" height="50" relative="1" as="geometry">
            <mxPoint x="450" y="1250" as="sourcePoint" />
            <mxPoint x="450" y="1310" as="targetPoint" />
            <Array as="points">
              <mxPoint x="450" y="1300" />
              <mxPoint x="60" y="1300" />
              <mxPoint x="60" y="1130" />
            </Array>
          </mxGeometry>
        </mxCell>
        <mxCell id="hoeMF-6ozECQFNes8gVZ-28" value="pc_stall" style="text;html=1;align=center;verticalAlign=middle;resizable=0;points=[];autosize=1;strokeColor=none;fillColor=none;" vertex="1" parent="1">
          <mxGeometry x="470" y="1290" width="60" height="30" as="geometry" />
        </mxCell>
        <mxCell id="hoeMF-6ozECQFNes8gVZ-29" value="control" style="whiteSpace=wrap;html=1;" vertex="1" parent="1">
          <mxGeometry x="610" y="590" width="40" height="260" as="geometry" />
        </mxCell>
        <mxCell id="hoeMF-6ozECQFNes8gVZ-30" value="" style="endArrow=none;html=1;rounded=0;exitX=1;exitY=0.5;exitDx=0;exitDy=0;strokeWidth=3;" edge="1" parent="1" source="hoeMF-6ozECQFNes8gVZ-17">
          <mxGeometry width="50" height="50" relative="1" as="geometry">
            <mxPoint x="530" y="990" as="sourcePoint" />
            <mxPoint x="540" y="1000" as="targetPoint" />
          </mxGeometry>
        </mxCell>
        <mxCell id="hoeMF-6ozECQFNes8gVZ-32" value="" style="endArrow=classic;html=1;rounded=0;entryX=-0.05;entryY=0.822;entryDx=0;entryDy=0;entryPerimeter=0;strokeWidth=3;" edge="1" parent="1" target="hoeMF-6ozECQFNes8gVZ-29">
          <mxGeometry width="50" height="50" relative="1" as="geometry">
            <mxPoint x="540" y="1000" as="sourcePoint" />
            <mxPoint x="590" y="950" as="targetPoint" />
            <Array as="points">
              <mxPoint x="540" y="804" />
            </Array>
          </mxGeometry>
        </mxCell>
        <mxCell id="hoeMF-6ozECQFNes8gVZ-33" value="[31:0]instr" style="text;html=1;align=center;verticalAlign=middle;resizable=0;points=[];autosize=1;strokeColor=none;fillColor=none;" vertex="1" parent="1">
          <mxGeometry x="540" y="770" width="80" height="30" as="geometry" />
        </mxCell>
        <mxCell id="hoeMF-6ozECQFNes8gVZ-34" value="" style="endArrow=classic;html=1;rounded=0;exitX=1.108;exitY=0.071;exitDx=0;exitDy=0;exitPerimeter=0;fillColor=#e51400;strokeColor=#B20000;entryX=0;entryY=0.088;entryDx=0;entryDy=0;entryPerimeter=0;" edge="1" parent="1" source="hoeMF-6ozECQFNes8gVZ-29" target="hoeMF-6ozECQFNes8gVZ-73">
          <mxGeometry width="50" height="50" relative="1" as="geometry">
            <mxPoint x="770" y="650" as="sourcePoint" />
            <mxPoint x="810" y="608" as="targetPoint" />
          </mxGeometry>
        </mxCell>
        <mxCell id="hoeMF-6ozECQFNes8gVZ-35" value="[2:0]branch_d" style="text;html=1;align=center;verticalAlign=middle;resizable=0;points=[];autosize=1;strokeColor=none;fillColor=none;" vertex="1" parent="1">
          <mxGeometry x="650" y="578" width="100" height="30" as="geometry" />
        </mxCell>
        <mxCell id="hoeMF-6ozECQFNes8gVZ-36" value="" style="endArrow=classic;html=1;rounded=0;exitX=1.057;exitY=0.16;exitDx=0;exitDy=0;exitPerimeter=0;fillColor=#e51400;strokeColor=#B20000;entryX=-0.133;entryY=0.118;entryDx=0;entryDy=0;entryPerimeter=0;" edge="1" parent="1" source="hoeMF-6ozECQFNes8gVZ-29" target="hoeMF-6ozECQFNes8gVZ-73">
          <mxGeometry width="50" height="50" relative="1" as="geometry">
            <mxPoint x="720" y="720" as="sourcePoint" />
            <mxPoint x="800" y="632" as="targetPoint" />
          </mxGeometry>
        </mxCell>
        <mxCell id="hoeMF-6ozECQFNes8gVZ-37" value="reg_write_d" style="text;html=1;align=center;verticalAlign=middle;resizable=0;points=[];autosize=1;strokeColor=none;fillColor=none;" vertex="1" parent="1">
          <mxGeometry x="650" y="608" width="90" height="30" as="geometry" />
        </mxCell>
        <mxCell id="hoeMF-6ozECQFNes8gVZ-38" value="" style="endArrow=classic;html=1;rounded=0;exitX=1;exitY=0.25;exitDx=0;exitDy=0;fillColor=#e51400;strokeColor=#B20000;entryX=-0.067;entryY=0.147;entryDx=0;entryDy=0;entryPerimeter=0;" edge="1" parent="1" source="hoeMF-6ozECQFNes8gVZ-29" target="hoeMF-6ozECQFNes8gVZ-73">
          <mxGeometry width="50" height="50" relative="1" as="geometry">
            <mxPoint x="710" y="730" as="sourcePoint" />
            <mxPoint x="800" y="655" as="targetPoint" />
          </mxGeometry>
        </mxCell>
        <mxCell id="hoeMF-6ozECQFNes8gVZ-39" value="mem_to_reg_d" style="text;html=1;align=center;verticalAlign=middle;resizable=0;points=[];autosize=1;strokeColor=none;fillColor=none;" vertex="1" parent="1">
          <mxGeometry x="645" y="630" width="100" height="30" as="geometry" />
        </mxCell>
        <mxCell id="hoeMF-6ozECQFNes8gVZ-40" value="[3:0]mem_write_d" style="text;html=1;align=center;verticalAlign=middle;resizable=0;points=[];autosize=1;strokeColor=none;fillColor=none;" vertex="1" parent="1">
          <mxGeometry x="650" y="670" width="120" height="30" as="geometry" />
        </mxCell>
        <mxCell id="hoeMF-6ozECQFNes8gVZ-41" value="" style="endArrow=classic;html=1;rounded=0;exitX=1.057;exitY=0.422;exitDx=0;exitDy=0;exitPerimeter=0;fillColor=#e51400;strokeColor=#B20000;entryX=0.033;entryY=0.197;entryDx=0;entryDy=0;entryPerimeter=0;" edge="1" parent="1" source="hoeMF-6ozECQFNes8gVZ-29" target="hoeMF-6ozECQFNes8gVZ-73">
          <mxGeometry width="50" height="50" relative="1" as="geometry">
            <mxPoint x="700" y="750" as="sourcePoint" />
            <mxPoint x="800" y="700" as="targetPoint" />
          </mxGeometry>
        </mxCell>
        <mxCell id="hoeMF-6ozECQFNes8gVZ-42" value="[3:0]alu_control_d" style="text;html=1;align=center;verticalAlign=middle;resizable=0;points=[];autosize=1;strokeColor=none;fillColor=none;" vertex="1" parent="1">
          <mxGeometry x="650" y="705" width="120" height="30" as="geometry" />
        </mxCell>
        <mxCell id="hoeMF-6ozECQFNes8gVZ-43" value="" style="endArrow=classic;html=1;rounded=0;exitX=0.977;exitY=0.578;exitDx=0;exitDy=0;exitPerimeter=0;fillColor=#e51400;strokeColor=#B20000;entryX=0;entryY=0.25;entryDx=0;entryDy=0;" edge="1" parent="1" source="hoeMF-6ozECQFNes8gVZ-29" target="hoeMF-6ozECQFNes8gVZ-73">
          <mxGeometry width="50" height="50" relative="1" as="geometry">
            <mxPoint x="720" y="790" as="sourcePoint" />
            <mxPoint x="800" y="740" as="targetPoint" />
          </mxGeometry>
        </mxCell>
        <mxCell id="hoeMF-6ozECQFNes8gVZ-44" value="unsign" style="text;html=1;align=center;verticalAlign=middle;resizable=0;points=[];autosize=1;strokeColor=none;fillColor=none;" vertex="1" parent="1">
          <mxGeometry x="650" y="810" width="60" height="30" as="geometry" />
        </mxCell>
        <mxCell id="hoeMF-6ozECQFNes8gVZ-45" value="" style="endArrow=classic;html=1;rounded=0;exitX=1.03;exitY=0.939;exitDx=0;exitDy=0;exitPerimeter=0;fillColor=#e51400;strokeColor=#B20000;entryX=0;entryY=0.25;entryDx=0;entryDy=0;" edge="1" parent="1" source="hoeMF-6ozECQFNes8gVZ-29" target="hoeMF-6ozECQFNes8gVZ-70">
          <mxGeometry width="50" height="50" relative="1" as="geometry">
            <mxPoint x="710" y="870" as="sourcePoint" />
            <mxPoint x="790" y="834" as="targetPoint" />
            <Array as="points">
              <mxPoint x="690" y="834" />
              <mxPoint x="690" y="1195" />
            </Array>
          </mxGeometry>
        </mxCell>
        <mxCell id="hoeMF-6ozECQFNes8gVZ-47" value="alu_src_d" style="text;html=1;align=center;verticalAlign=middle;resizable=0;points=[];autosize=1;strokeColor=none;fillColor=none;" vertex="1" parent="1">
          <mxGeometry x="640" y="740" width="80" height="30" as="geometry" />
        </mxCell>
        <mxCell id="hoeMF-6ozECQFNes8gVZ-48" value="" style="endArrow=classic;html=1;rounded=0;exitX=0.038;exitY=1.158;exitDx=0;exitDy=0;exitPerimeter=0;fillColor=#e51400;strokeColor=#B20000;entryX=-0.133;entryY=0.297;entryDx=0;entryDy=0;entryPerimeter=0;" edge="1" parent="1" source="hoeMF-6ozECQFNes8gVZ-47" target="hoeMF-6ozECQFNes8gVZ-73">
          <mxGeometry width="50" height="50" relative="1" as="geometry">
            <mxPoint x="880" y="800" as="sourcePoint" />
            <mxPoint x="800" y="775" as="targetPoint" />
          </mxGeometry>
        </mxCell>
        <mxCell id="hoeMF-6ozECQFNes8gVZ-49" value="reg_dst_d" style="text;html=1;align=center;verticalAlign=middle;resizable=0;points=[];autosize=1;strokeColor=none;fillColor=none;" vertex="1" parent="1">
          <mxGeometry x="640" y="770" width="80" height="30" as="geometry" />
        </mxCell>
        <mxCell id="hoeMF-6ozECQFNes8gVZ-50" value="" style="endArrow=classic;html=1;rounded=0;exitX=0.056;exitY=-0.224;exitDx=0;exitDy=0;exitPerimeter=0;fillColor=#e51400;strokeColor=#B20000;entryX=-0.1;entryY=0.34;entryDx=0;entryDy=0;entryPerimeter=0;" edge="1" parent="1" source="hoeMF-6ozECQFNes8gVZ-44" target="hoeMF-6ozECQFNes8gVZ-73">
          <mxGeometry width="50" height="50" relative="1" as="geometry">
            <mxPoint x="900" y="810" as="sourcePoint" />
            <mxPoint x="810" y="803" as="targetPoint" />
          </mxGeometry>
        </mxCell>
        <mxCell id="hoeMF-6ozECQFNes8gVZ-51" value="reg_file" style="rounded=0;whiteSpace=wrap;html=1;" vertex="1" parent="1">
          <mxGeometry x="800" y="935" width="220" height="130" as="geometry" />
        </mxCell>
        <mxCell id="hoeMF-6ozECQFNes8gVZ-52" value="addr1" style="text;html=1;align=center;verticalAlign=middle;resizable=0;points=[];autosize=1;strokeColor=none;fillColor=none;" vertex="1" parent="1">
          <mxGeometry x="800" y="940" width="50" height="30" as="geometry" />
        </mxCell>
        <mxCell id="hoeMF-6ozECQFNes8gVZ-53" value="addr2" style="text;html=1;align=center;verticalAlign=middle;resizable=0;points=[];autosize=1;strokeColor=none;fillColor=none;" vertex="1" parent="1">
          <mxGeometry x="800" y="982.5" width="50" height="30" as="geometry" />
        </mxCell>
        <mxCell id="hoeMF-6ozECQFNes8gVZ-54" value="addr3" style="text;html=1;align=center;verticalAlign=middle;resizable=0;points=[];autosize=1;strokeColor=none;fillColor=none;" vertex="1" parent="1">
          <mxGeometry x="850" y="1040" width="50" height="30" as="geometry" />
        </mxCell>
        <mxCell id="hoeMF-6ozECQFNes8gVZ-55" value="WE" style="text;html=1;align=center;verticalAlign=middle;resizable=0;points=[];autosize=1;strokeColor=none;fillColor=none;" vertex="1" parent="1">
          <mxGeometry x="890" y="935" width="40" height="30" as="geometry" />
        </mxCell>
        <mxCell id="hoeMF-6ozECQFNes8gVZ-56" value="wd" style="text;html=1;align=center;verticalAlign=middle;resizable=0;points=[];autosize=1;strokeColor=none;fillColor=none;" vertex="1" parent="1">
          <mxGeometry x="930" y="1040" width="40" height="30" as="geometry" />
        </mxCell>
        <mxCell id="hoeMF-6ozECQFNes8gVZ-57" value="rd1" style="text;html=1;align=center;verticalAlign=middle;resizable=0;points=[];autosize=1;strokeColor=none;fillColor=none;" vertex="1" parent="1">
          <mxGeometry x="985" y="940" width="40" height="30" as="geometry" />
        </mxCell>
        <mxCell id="hoeMF-6ozECQFNes8gVZ-58" value="rd2" style="text;html=1;align=center;verticalAlign=middle;resizable=0;points=[];autosize=1;strokeColor=none;fillColor=none;" vertex="1" parent="1">
          <mxGeometry x="985" y="1030" width="40" height="30" as="geometry" />
        </mxCell>
        <mxCell id="hoeMF-6ozECQFNes8gVZ-59" value="clk" style="triangle;whiteSpace=wrap;html=1;direction=south;" vertex="1" parent="1">
          <mxGeometry x="940" y="935" width="50" height="20" as="geometry" />
        </mxCell>
        <mxCell id="hoeMF-6ozECQFNes8gVZ-61" value="choose" style="shape=trapezoid;perimeter=trapezoidPerimeter;whiteSpace=wrap;html=1;fixedSize=1;direction=south;" vertex="1" parent="1">
          <mxGeometry x="1070" y="935" width="50" height="125" as="geometry" />
        </mxCell>
        <mxCell id="hoeMF-6ozECQFNes8gVZ-62" value="" style="endArrow=classic;html=1;rounded=0;" edge="1" parent="1">
          <mxGeometry width="50" height="50" relative="1" as="geometry">
            <mxPoint x="1010" y="955" as="sourcePoint" />
            <mxPoint x="1070" y="955" as="targetPoint" />
          </mxGeometry>
        </mxCell>
        <mxCell id="hoeMF-6ozECQFNes8gVZ-63" value="" style="endArrow=classic;html=1;rounded=0;" edge="1" parent="1">
          <mxGeometry width="50" height="50" relative="1" as="geometry">
            <mxPoint x="1020" y="1044.38" as="sourcePoint" />
            <mxPoint x="1070" y="1044.38" as="targetPoint" />
          </mxGeometry>
        </mxCell>
        <mxCell id="hoeMF-6ozECQFNes8gVZ-64" value="" style="endArrow=classic;html=1;rounded=0;entryX=-0.08;entryY=0.75;entryDx=0;entryDy=0;entryPerimeter=0;" edge="1" parent="1" target="hoeMF-6ozECQFNes8gVZ-52">
          <mxGeometry width="50" height="50" relative="1" as="geometry">
            <mxPoint x="540" y="960" as="sourcePoint" />
            <mxPoint x="720" y="1030" as="targetPoint" />
          </mxGeometry>
        </mxCell>
        <mxCell id="hoeMF-6ozECQFNes8gVZ-65" value="25:21" style="text;html=1;align=center;verticalAlign=middle;resizable=0;points=[];autosize=1;strokeColor=none;fillColor=none;" vertex="1" parent="1">
          <mxGeometry x="740" y="935" width="50" height="30" as="geometry" />
        </mxCell>
        <mxCell id="hoeMF-6ozECQFNes8gVZ-66" value="20:16" style="text;html=1;align=center;verticalAlign=middle;resizable=0;points=[];autosize=1;strokeColor=none;fillColor=none;" vertex="1" parent="1">
          <mxGeometry x="750" y="980" width="50" height="30" as="geometry" />
        </mxCell>
        <mxCell id="hoeMF-6ozECQFNes8gVZ-67" value="" style="endArrow=classic;html=1;rounded=0;entryX=-0.08;entryY=0.6;entryDx=0;entryDy=0;entryPerimeter=0;" edge="1" parent="1" target="hoeMF-6ozECQFNes8gVZ-53">
          <mxGeometry width="50" height="50" relative="1" as="geometry">
            <mxPoint x="540" y="1000" as="sourcePoint" />
            <mxPoint x="750" y="1010" as="targetPoint" />
          </mxGeometry>
        </mxCell>
        <mxCell id="hoeMF-6ozECQFNes8gVZ-68" value="" style="endArrow=none;html=1;rounded=0;strokeWidth=4;" edge="1" parent="1">
          <mxGeometry width="50" height="50" relative="1" as="geometry">
            <mxPoint x="540" y="1210" as="sourcePoint" />
            <mxPoint x="540" y="1000" as="targetPoint" />
          </mxGeometry>
        </mxCell>
        <mxCell id="hoeMF-6ozECQFNes8gVZ-95" style="edgeStyle=orthogonalEdgeStyle;rounded=0;orthogonalLoop=1;jettySize=auto;html=1;exitX=1;exitY=0.5;exitDx=0;exitDy=0;entryX=-0.133;entryY=0.871;entryDx=0;entryDy=0;entryPerimeter=0;" edge="1" parent="1" source="hoeMF-6ozECQFNes8gVZ-70" target="hoeMF-6ozECQFNes8gVZ-73">
          <mxGeometry relative="1" as="geometry" />
        </mxCell>
        <mxCell id="hoeMF-6ozECQFNes8gVZ-70" value="imm extend" style="whiteSpace=wrap;html=1;" vertex="1" parent="1">
          <mxGeometry x="810" y="1180" width="110" height="60" as="geometry" />
        </mxCell>
        <mxCell id="hoeMF-6ozECQFNes8gVZ-71" value="" style="endArrow=classic;html=1;rounded=0;entryX=0;entryY=0.5;entryDx=0;entryDy=0;" edge="1" parent="1" target="hoeMF-6ozECQFNes8gVZ-70">
          <mxGeometry width="50" height="50" relative="1" as="geometry">
            <mxPoint x="540" y="1210" as="sourcePoint" />
            <mxPoint x="730" y="1160" as="targetPoint" />
          </mxGeometry>
        </mxCell>
        <mxCell id="hoeMF-6ozECQFNes8gVZ-72" value="15:0" style="text;html=1;align=center;verticalAlign=middle;resizable=0;points=[];autosize=1;strokeColor=none;fillColor=none;" vertex="1" parent="1">
          <mxGeometry x="760" y="1190" width="50" height="30" as="geometry" />
        </mxCell>
        <mxCell id="hoeMF-6ozECQFNes8gVZ-73" value="" style="whiteSpace=wrap;html=1;" vertex="1" parent="1">
          <mxGeometry x="1200" y="540" width="30" height="770" as="geometry" />
        </mxCell>
        <mxCell id="hoeMF-6ozECQFNes8gVZ-74" value="clk" style="triangle;whiteSpace=wrap;html=1;direction=south;" vertex="1" parent="1">
          <mxGeometry x="470" y="730" width="30" height="25" as="geometry" />
        </mxCell>
        <mxCell id="hoeMF-6ozECQFNes8gVZ-75" value="clk" style="triangle;whiteSpace=wrap;html=1;direction=south;" vertex="1" parent="1">
          <mxGeometry x="1200" y="540" width="30" height="25" as="geometry" />
        </mxCell>
        <mxCell id="hoeMF-6ozECQFNes8gVZ-76" value="" style="endArrow=classic;html=1;rounded=0;entryX=0;entryY=0.714;entryDx=0;entryDy=0;entryPerimeter=0;" edge="1" parent="1" target="hoeMF-6ozECQFNes8gVZ-73">
          <mxGeometry width="50" height="50" relative="1" as="geometry">
            <mxPoint x="540" y="1090" as="sourcePoint" />
            <mxPoint x="710" y="1060" as="targetPoint" />
          </mxGeometry>
        </mxCell>
        <mxCell id="hoeMF-6ozECQFNes8gVZ-77" value="" style="endArrow=classic;html=1;rounded=0;entryX=0;entryY=0.75;entryDx=0;entryDy=0;" edge="1" parent="1" target="hoeMF-6ozECQFNes8gVZ-73">
          <mxGeometry width="50" height="50" relative="1" as="geometry">
            <mxPoint x="540" y="1120" as="sourcePoint" />
            <mxPoint x="690" y="1110" as="targetPoint" />
          </mxGeometry>
        </mxCell>
        <mxCell id="hoeMF-6ozECQFNes8gVZ-78" value="" style="endArrow=classic;html=1;rounded=0;entryX=-0.133;entryY=0.792;entryDx=0;entryDy=0;entryPerimeter=0;" edge="1" parent="1" target="hoeMF-6ozECQFNes8gVZ-73">
          <mxGeometry width="50" height="50" relative="1" as="geometry">
            <mxPoint x="550" y="1150" as="sourcePoint" />
            <mxPoint x="630" y="1130" as="targetPoint" />
          </mxGeometry>
        </mxCell>
        <mxCell id="hoeMF-6ozECQFNes8gVZ-79" value="" style="endArrow=classic;html=1;rounded=0;entryX=-0.167;entryY=0.815;entryDx=0;entryDy=0;entryPerimeter=0;" edge="1" parent="1" target="hoeMF-6ozECQFNes8gVZ-73">
          <mxGeometry width="50" height="50" relative="1" as="geometry">
            <mxPoint x="540" y="1170" as="sourcePoint" />
            <mxPoint x="700" y="1240" as="targetPoint" />
          </mxGeometry>
        </mxCell>
        <mxCell id="hoeMF-6ozECQFNes8gVZ-80" value="20:16" style="text;html=1;align=center;verticalAlign=middle;resizable=0;points=[];autosize=1;strokeColor=none;fillColor=none;" vertex="1" parent="1">
          <mxGeometry x="1130" y="1065" width="50" height="30" as="geometry" />
        </mxCell>
        <mxCell id="hoeMF-6ozECQFNes8gVZ-82" value="15:11" style="text;html=1;align=center;verticalAlign=middle;resizable=0;points=[];autosize=1;strokeColor=none;fillColor=none;" vertex="1" parent="1">
          <mxGeometry x="1120" y="1090" width="50" height="30" as="geometry" />
        </mxCell>
        <mxCell id="hoeMF-6ozECQFNes8gVZ-85" value="shamt" style="text;html=1;align=center;verticalAlign=middle;resizable=0;points=[];autosize=1;strokeColor=none;fillColor=none;" vertex="1" parent="1">
          <mxGeometry x="1140" y="1130" width="60" height="30" as="geometry" />
        </mxCell>
        <mxCell id="hoeMF-6ozECQFNes8gVZ-86" value="offset" style="text;html=1;align=center;verticalAlign=middle;resizable=0;points=[];autosize=1;strokeColor=none;fillColor=none;" vertex="1" parent="1">
          <mxGeometry x="1140" y="1160" width="50" height="30" as="geometry" />
        </mxCell>
        <mxCell id="hoeMF-6ozECQFNes8gVZ-87" value="" style="endArrow=classic;html=1;rounded=0;exitX=1.1;exitY=0.968;exitDx=0;exitDy=0;exitPerimeter=0;entryX=0.067;entryY=0.919;entryDx=0;entryDy=0;entryPerimeter=0;" edge="1" parent="1" source="hoeMF-6ozECQFNes8gVZ-17" target="hoeMF-6ozECQFNes8gVZ-73">
          <mxGeometry width="50" height="50" relative="1" as="geometry">
            <mxPoint x="960" y="1225.44" as="sourcePoint" />
            <mxPoint x="1207.99" y="1240" as="targetPoint" />
          </mxGeometry>
        </mxCell>
        <mxCell id="hoeMF-6ozECQFNes8gVZ-88" value="" style="endArrow=classic;html=1;rounded=0;entryX=1;entryY=0.5;entryDx=0;entryDy=0;exitX=0.5;exitY=1;exitDx=0;exitDy=0;" edge="1" parent="1" source="hoeMF-6ozECQFNes8gVZ-17" target="hoeMF-6ozECQFNes8gVZ-20">
          <mxGeometry width="50" height="50" relative="1" as="geometry">
            <mxPoint x="400" y="1420" as="sourcePoint" />
            <mxPoint x="450" y="1370" as="targetPoint" />
            <Array as="points">
              <mxPoint x="485" y="1320" />
              <mxPoint x="400" y="1320" />
            </Array>
          </mxGeometry>
        </mxCell>
        <mxCell id="hoeMF-6ozECQFNes8gVZ-89" value="pc_plus4_d" style="text;html=1;align=center;verticalAlign=middle;resizable=0;points=[];autosize=1;strokeColor=none;fillColor=none;" vertex="1" parent="1">
          <mxGeometry x="1120" y="1240" width="80" height="30" as="geometry" />
        </mxCell>
        <mxCell id="hoeMF-6ozECQFNes8gVZ-90" value="" style="endArrow=classic;html=1;rounded=0;exitX=0.25;exitY=0;exitDx=0;exitDy=0;entryX=-0.067;entryY=0.551;entryDx=0;entryDy=0;entryPerimeter=0;" edge="1" parent="1" source="hoeMF-6ozECQFNes8gVZ-61" target="hoeMF-6ozECQFNes8gVZ-73">
          <mxGeometry width="50" height="50" relative="1" as="geometry">
            <mxPoint x="1350" y="980" as="sourcePoint" />
            <mxPoint x="1400" y="930" as="targetPoint" />
          </mxGeometry>
        </mxCell>
        <mxCell id="hoeMF-6ozECQFNes8gVZ-91" value="rd1_d" style="text;html=1;align=center;verticalAlign=middle;resizable=0;points=[];autosize=1;strokeColor=none;fillColor=none;" vertex="1" parent="1">
          <mxGeometry x="1145" y="935" width="50" height="30" as="geometry" />
        </mxCell>
        <mxCell id="hoeMF-6ozECQFNes8gVZ-93" value="rd2_d" style="text;html=1;align=center;verticalAlign=middle;resizable=0;points=[];autosize=1;strokeColor=none;fillColor=none;" vertex="1" parent="1">
          <mxGeometry x="1145" y="1000" width="50" height="30" as="geometry" />
        </mxCell>
        <mxCell id="hoeMF-6ozECQFNes8gVZ-94" value="" style="endArrow=classic;html=1;rounded=0;exitX=0.75;exitY=0;exitDx=0;exitDy=0;entryX=-0.133;entryY=0.637;entryDx=0;entryDy=0;entryPerimeter=0;" edge="1" parent="1" source="hoeMF-6ozECQFNes8gVZ-61" target="hoeMF-6ozECQFNes8gVZ-73">
          <mxGeometry width="50" height="50" relative="1" as="geometry">
            <mxPoint x="1360" y="930" as="sourcePoint" />
            <mxPoint x="1410" y="880" as="targetPoint" />
          </mxGeometry>
        </mxCell>
        <mxCell id="hoeMF-6ozECQFNes8gVZ-96" value="imm_d" style="text;html=1;align=center;verticalAlign=middle;resizable=0;points=[];autosize=1;strokeColor=none;fillColor=none;" vertex="1" parent="1">
          <mxGeometry x="1135" y="1200" width="60" height="30" as="geometry" />
        </mxCell>
        <mxCell id="hoeMF-6ozECQFNes8gVZ-98" style="edgeStyle=orthogonalEdgeStyle;rounded=0;orthogonalLoop=1;jettySize=auto;html=1;exitX=0;exitY=0.5;exitDx=0;exitDy=0;entryX=1;entryY=0.5;entryDx=0;entryDy=0;fillColor=#0050ef;strokeColor=#001DBC;strokeWidth=3;" edge="1" parent="1" source="hoeMF-6ozECQFNes8gVZ-97" target="hoeMF-6ozECQFNes8gVZ-61">
          <mxGeometry relative="1" as="geometry" />
        </mxCell>
        <mxCell id="hoeMF-6ozECQFNes8gVZ-97" value="forwarding" style="ellipse;whiteSpace=wrap;html=1;aspect=fixed;" vertex="1" parent="1">
          <mxGeometry x="1125" y="1430" width="80" height="80" as="geometry" />
        </mxCell>
        <mxCell id="hoeMF-6ozECQFNes8gVZ-99" value="choose&amp;nbsp; and&amp;nbsp; &amp;nbsp;data" style="text;html=1;align=center;verticalAlign=middle;resizable=0;points=[];autosize=1;strokeColor=none;fillColor=none;" vertex="1" parent="1">
          <mxGeometry x="1015" y="1400" width="120" height="30" as="geometry" />
        </mxCell>
        <mxCell id="hoeMF-6ozECQFNes8gVZ-135" style="edgeStyle=orthogonalEdgeStyle;rounded=0;orthogonalLoop=1;jettySize=auto;html=1;entryX=0.25;entryY=1;entryDx=0;entryDy=0;exitX=0.25;exitY=0;exitDx=0;exitDy=0;" edge="1" parent="1" source="hoeMF-6ozECQFNes8gVZ-102" target="hoeMF-6ozECQFNes8gVZ-134">
          <mxGeometry relative="1" as="geometry">
            <mxPoint x="1480" y="874" as="sourcePoint" />
          </mxGeometry>
        </mxCell>
        <mxCell id="hoeMF-6ozECQFNes8gVZ-102" value="choose_data" style="shape=trapezoid;perimeter=trapezoidPerimeter;whiteSpace=wrap;html=1;fixedSize=1;direction=south;" vertex="1" parent="1">
          <mxGeometry x="1400" y="840" width="70" height="130" as="geometry" />
        </mxCell>
        <mxCell id="hoeMF-6ozECQFNes8gVZ-103" value="choose_addr" style="shape=trapezoid;perimeter=trapezoidPerimeter;whiteSpace=wrap;html=1;fixedSize=1;direction=south;" vertex="1" parent="1">
          <mxGeometry x="1320" y="1030" width="70" height="137.5" as="geometry" />
        </mxCell>
        <mxCell id="hoeMF-6ozECQFNes8gVZ-104" value="" style="endArrow=classic;html=1;rounded=0;entryX=0.44;entryY=1.014;entryDx=0;entryDy=0;entryPerimeter=0;exitX=1.067;exitY=0.715;exitDx=0;exitDy=0;exitPerimeter=0;" edge="1" parent="1" source="hoeMF-6ozECQFNes8gVZ-73" target="hoeMF-6ozECQFNes8gVZ-103">
          <mxGeometry width="50" height="50" relative="1" as="geometry">
            <mxPoint x="1240" y="1090" as="sourcePoint" />
            <mxPoint x="1290" y="1050" as="targetPoint" />
          </mxGeometry>
        </mxCell>
        <mxCell id="hoeMF-6ozECQFNes8gVZ-105" value="" style="endArrow=classic;html=1;rounded=0;exitX=1;exitY=0.75;exitDx=0;exitDy=0;entryX=0.651;entryY=1.029;entryDx=0;entryDy=0;entryPerimeter=0;" edge="1" parent="1" source="hoeMF-6ozECQFNes8gVZ-73" target="hoeMF-6ozECQFNes8gVZ-103">
          <mxGeometry width="50" height="50" relative="1" as="geometry">
            <mxPoint x="1240" y="1180" as="sourcePoint" />
            <mxPoint x="1290" y="1130" as="targetPoint" />
          </mxGeometry>
        </mxCell>
        <mxCell id="hoeMF-6ozECQFNes8gVZ-106" value="rt_e" style="text;html=1;align=center;verticalAlign=middle;resizable=0;points=[];autosize=1;strokeColor=none;fillColor=none;" vertex="1" parent="1">
          <mxGeometry x="1260" y="1065" width="40" height="30" as="geometry" />
        </mxCell>
        <mxCell id="hoeMF-6ozECQFNes8gVZ-107" value="rd_e" style="text;html=1;align=center;verticalAlign=middle;resizable=0;points=[];autosize=1;strokeColor=none;fillColor=none;" vertex="1" parent="1">
          <mxGeometry x="1260" y="1110" width="50" height="30" as="geometry" />
        </mxCell>
        <mxCell id="hoeMF-6ozECQFNes8gVZ-108" value="" style="endArrow=classic;html=1;rounded=0;exitX=1.033;exitY=0.34;exitDx=0;exitDy=0;exitPerimeter=0;entryX=0;entryY=0.75;entryDx=0;entryDy=0;fillColor=#e51400;strokeColor=#B20000;" edge="1" parent="1" source="hoeMF-6ozECQFNes8gVZ-73" target="hoeMF-6ozECQFNes8gVZ-103">
          <mxGeometry width="50" height="50" relative="1" as="geometry">
            <mxPoint x="1390" y="770" as="sourcePoint" />
            <mxPoint x="1440" y="720" as="targetPoint" />
            <Array as="points">
              <mxPoint x="1339" y="802" />
            </Array>
          </mxGeometry>
        </mxCell>
        <mxCell id="hoeMF-6ozECQFNes8gVZ-109" value="" style="endArrow=classic;html=1;rounded=0;exitX=1.1;exitY=0.085;exitDx=0;exitDy=0;exitPerimeter=0;entryX=0;entryY=0.25;entryDx=0;entryDy=0;fillColor=#e51400;strokeColor=#B20000;" edge="1" parent="1" source="hoeMF-6ozECQFNes8gVZ-73" target="hoeMF-6ozECQFNes8gVZ-103">
          <mxGeometry width="50" height="50" relative="1" as="geometry">
            <mxPoint x="1400" y="700" as="sourcePoint" />
            <mxPoint x="1450" y="650" as="targetPoint" />
            <Array as="points">
              <mxPoint x="1370" y="605" />
            </Array>
          </mxGeometry>
        </mxCell>
        <mxCell id="hoeMF-6ozECQFNes8gVZ-110" value="branch_e" style="text;html=1;align=center;verticalAlign=middle;resizable=0;points=[];autosize=1;strokeColor=none;fillColor=none;" vertex="1" parent="1">
          <mxGeometry x="1300" y="580" width="70" height="30" as="geometry" />
        </mxCell>
        <mxCell id="hoeMF-6ozECQFNes8gVZ-111" value="reg_dst_e" style="text;html=1;align=center;verticalAlign=middle;resizable=0;points=[];autosize=1;strokeColor=none;fillColor=none;" vertex="1" parent="1">
          <mxGeometry x="1220" y="800" width="80" height="30" as="geometry" />
        </mxCell>
        <mxCell id="hoeMF-6ozECQFNes8gVZ-112" value="" style="endArrow=classic;html=1;rounded=0;exitX=1.067;exitY=0.916;exitDx=0;exitDy=0;exitPerimeter=0;" edge="1" parent="1" source="hoeMF-6ozECQFNes8gVZ-73">
          <mxGeometry width="50" height="50" relative="1" as="geometry">
            <mxPoint x="1330" y="1270" as="sourcePoint" />
            <mxPoint x="1360" y="1245" as="targetPoint" />
          </mxGeometry>
        </mxCell>
        <mxCell id="hoeMF-6ozECQFNes8gVZ-114" value="cal_pc" style="whiteSpace=wrap;html=1;" vertex="1" parent="1">
          <mxGeometry x="1360" y="1200" width="90" height="80" as="geometry" />
        </mxCell>
        <mxCell id="hoeMF-6ozECQFNes8gVZ-115" value="" style="endArrow=classic;html=1;rounded=0;exitX=1;exitY=0.87;exitDx=0;exitDy=0;exitPerimeter=0;entryX=0;entryY=0.119;entryDx=0;entryDy=0;entryPerimeter=0;" edge="1" parent="1" source="hoeMF-6ozECQFNes8gVZ-73" target="hoeMF-6ozECQFNes8gVZ-114">
          <mxGeometry width="50" height="50" relative="1" as="geometry">
            <mxPoint x="1250" y="1230" as="sourcePoint" />
            <mxPoint x="1300" y="1180" as="targetPoint" />
          </mxGeometry>
        </mxCell>
        <mxCell id="hoeMF-6ozECQFNes8gVZ-116" value="imm_e" style="text;html=1;align=center;verticalAlign=middle;resizable=0;points=[];autosize=1;strokeColor=none;fillColor=none;" vertex="1" parent="1">
          <mxGeometry x="1230" y="1190" width="60" height="30" as="geometry" />
        </mxCell>
        <mxCell id="hoeMF-6ozECQFNes8gVZ-117" value="pc_plus4_e" style="text;html=1;align=center;verticalAlign=middle;resizable=0;points=[];autosize=1;strokeColor=none;fillColor=none;" vertex="1" parent="1">
          <mxGeometry x="1220" y="1240" width="80" height="30" as="geometry" />
        </mxCell>
        <mxCell id="hoeMF-6ozECQFNes8gVZ-119" value="" style="endArrow=classic;html=1;rounded=0;exitX=1;exitY=0.82;exitDx=0;exitDy=0;exitPerimeter=0;" edge="1" parent="1" source="hoeMF-6ozECQFNes8gVZ-73">
          <mxGeometry width="50" height="50" relative="1" as="geometry">
            <mxPoint x="1630" y="1170" as="sourcePoint" />
            <mxPoint x="1420" y="1170" as="targetPoint" />
          </mxGeometry>
        </mxCell>
        <mxCell id="hoeMF-6ozECQFNes8gVZ-120" value="" style="endArrow=classic;html=1;rounded=0;exitX=1.067;exitY=0.797;exitDx=0;exitDy=0;exitPerimeter=0;" edge="1" parent="1" source="hoeMF-6ozECQFNes8gVZ-73">
          <mxGeometry width="50" height="50" relative="1" as="geometry">
            <mxPoint x="1630" y="1170" as="sourcePoint" />
            <mxPoint x="1420" y="1150" as="targetPoint" />
          </mxGeometry>
        </mxCell>
        <mxCell id="hoeMF-6ozECQFNes8gVZ-121" value="" style="endArrow=classic;html=1;rounded=0;entryX=1;entryY=0.75;entryDx=0;entryDy=0;strokeWidth=3;" edge="1" parent="1" target="hoeMF-6ozECQFNes8gVZ-102">
          <mxGeometry width="50" height="50" relative="1" as="geometry">
            <mxPoint x="1420" y="1170" as="sourcePoint" />
            <mxPoint x="1470" y="1130" as="targetPoint" />
          </mxGeometry>
        </mxCell>
        <mxCell id="hoeMF-6ozECQFNes8gVZ-122" value="" style="endArrow=classic;html=1;rounded=0;" edge="1" parent="1">
          <mxGeometry width="50" height="50" relative="1" as="geometry">
            <mxPoint x="1330" y="1210" as="sourcePoint" />
            <mxPoint x="1420" y="1170" as="targetPoint" />
            <Array as="points">
              <mxPoint x="1330" y="1190" />
              <mxPoint x="1420" y="1190" />
            </Array>
          </mxGeometry>
        </mxCell>
        <mxCell id="hoeMF-6ozECQFNes8gVZ-123" value="" style="endArrow=classic;html=1;rounded=0;exitX=0.967;exitY=0.553;exitDx=0;exitDy=0;exitPerimeter=0;entryX=0.588;entryY=1.014;entryDx=0;entryDy=0;entryPerimeter=0;" edge="1" parent="1" source="hoeMF-6ozECQFNes8gVZ-73" target="hoeMF-6ozECQFNes8gVZ-102">
          <mxGeometry width="50" height="50" relative="1" as="geometry">
            <mxPoint x="1620" y="990" as="sourcePoint" />
            <mxPoint x="1670" y="940" as="targetPoint" />
            <Array as="points">
              <mxPoint x="1250" y="966" />
              <mxPoint x="1250" y="920" />
            </Array>
          </mxGeometry>
        </mxCell>
        <mxCell id="hoeMF-6ozECQFNes8gVZ-124" value="" style="endArrow=classic;html=1;rounded=0;exitX=1.067;exitY=0.637;exitDx=0;exitDy=0;exitPerimeter=0;entryX=0.75;entryY=1;entryDx=0;entryDy=0;" edge="1" parent="1" source="hoeMF-6ozECQFNes8gVZ-73" target="hoeMF-6ozECQFNes8gVZ-102">
          <mxGeometry width="50" height="50" relative="1" as="geometry">
            <mxPoint x="1570" y="1040" as="sourcePoint" />
            <mxPoint x="1620" y="990" as="targetPoint" />
            <Array as="points">
              <mxPoint x="1270" y="1030" />
              <mxPoint x="1270" y="940" />
            </Array>
          </mxGeometry>
        </mxCell>
        <mxCell id="hoeMF-6ozECQFNes8gVZ-126" value="pc" style="text;html=1;align=center;verticalAlign=middle;resizable=0;points=[];autosize=1;strokeColor=none;fillColor=none;" vertex="1" parent="1">
          <mxGeometry x="1220" y="840" width="40" height="30" as="geometry" />
        </mxCell>
        <mxCell id="hoeMF-6ozECQFNes8gVZ-127" value="rd1_e" style="text;html=1;align=center;verticalAlign=middle;resizable=0;points=[];autosize=1;strokeColor=none;fillColor=none;" vertex="1" parent="1">
          <mxGeometry x="1240" y="900" width="50" height="30" as="geometry" />
        </mxCell>
        <mxCell id="hoeMF-6ozECQFNes8gVZ-129" value="" style="endArrow=classic;html=1;rounded=0;exitX=1;exitY=0.423;exitDx=0;exitDy=0;exitPerimeter=0;entryX=0.181;entryY=1.057;entryDx=0;entryDy=0;entryPerimeter=0;" edge="1" parent="1" source="hoeMF-6ozECQFNes8gVZ-73" target="hoeMF-6ozECQFNes8gVZ-102">
          <mxGeometry width="50" height="50" relative="1" as="geometry">
            <mxPoint x="1260" y="900" as="sourcePoint" />
            <mxPoint x="1310" y="850" as="targetPoint" />
          </mxGeometry>
        </mxCell>
        <mxCell id="hoeMF-6ozECQFNes8gVZ-130" value="rd2_e" style="text;html=1;align=center;verticalAlign=middle;resizable=0;points=[];autosize=1;strokeColor=none;fillColor=none;" vertex="1" parent="1">
          <mxGeometry x="1270" y="935" width="50" height="30" as="geometry" />
        </mxCell>
        <mxCell id="hoeMF-6ozECQFNes8gVZ-131" value="" style="endArrow=classic;html=1;rounded=0;exitX=1.033;exitY=0.294;exitDx=0;exitDy=0;exitPerimeter=0;entryX=0;entryY=0.5;entryDx=0;entryDy=0;fillColor=#e51400;strokeColor=#B20000;" edge="1" parent="1" source="hoeMF-6ozECQFNes8gVZ-73" target="hoeMF-6ozECQFNes8gVZ-102">
          <mxGeometry width="50" height="50" relative="1" as="geometry">
            <mxPoint x="1480" y="770" as="sourcePoint" />
            <mxPoint x="1530" y="720" as="targetPoint" />
            <Array as="points">
              <mxPoint x="1435" y="766" />
            </Array>
          </mxGeometry>
        </mxCell>
        <mxCell id="hoeMF-6ozECQFNes8gVZ-132" value="alu_src_e" style="text;html=1;align=center;verticalAlign=middle;resizable=0;points=[];autosize=1;strokeColor=none;fillColor=none;" vertex="1" parent="1">
          <mxGeometry x="1220" y="735" width="80" height="30" as="geometry" />
        </mxCell>
        <mxCell id="hoeMF-6ozECQFNes8gVZ-133" value="" style="endArrow=classic;html=1;rounded=0;exitX=1.029;exitY=0.85;exitDx=0;exitDy=0;exitPerimeter=0;entryX=0;entryY=0;entryDx=0;entryDy=0;fillColor=#e51400;strokeColor=#B20000;" edge="1" parent="1" source="hoeMF-6ozECQFNes8gVZ-110" target="hoeMF-6ozECQFNes8gVZ-102">
          <mxGeometry width="50" height="50" relative="1" as="geometry">
            <mxPoint x="1510" y="670" as="sourcePoint" />
            <mxPoint x="1560" y="620" as="targetPoint" />
            <Array as="points">
              <mxPoint x="1460" y="606" />
            </Array>
          </mxGeometry>
        </mxCell>
        <mxCell id="hoeMF-6ozECQFNes8gVZ-134" value="ALU" style="shape=trapezoid;perimeter=trapezoidPerimeter;whiteSpace=wrap;html=1;fixedSize=1;direction=south;" vertex="1" parent="1">
          <mxGeometry x="1560" y="820" width="90" height="205" as="geometry" />
        </mxCell>
        <mxCell id="hoeMF-6ozECQFNes8gVZ-136" value="" style="endArrow=classic;html=1;rounded=0;exitX=0.75;exitY=0;exitDx=0;exitDy=0;entryX=0.573;entryY=1;entryDx=0;entryDy=0;entryPerimeter=0;" edge="1" parent="1" source="hoeMF-6ozECQFNes8gVZ-102" target="hoeMF-6ozECQFNes8gVZ-134">
          <mxGeometry width="50" height="50" relative="1" as="geometry">
            <mxPoint x="1470" y="1040" as="sourcePoint" />
            <mxPoint x="1520" y="990" as="targetPoint" />
          </mxGeometry>
        </mxCell>
        <mxCell id="hoeMF-6ozECQFNes8gVZ-137" value="" style="endArrow=classic;html=1;rounded=0;exitX=0.175;exitY=-0.117;exitDx=0;exitDy=0;exitPerimeter=0;entryX=0;entryY=0.5;entryDx=0;entryDy=0;fillColor=#e51400;strokeColor=#B20000;" edge="1" parent="1" source="hoeMF-6ozECQFNes8gVZ-132" target="hoeMF-6ozECQFNes8gVZ-134">
          <mxGeometry width="50" height="50" relative="1" as="geometry">
            <mxPoint x="1590" y="710" as="sourcePoint" />
            <mxPoint x="1640" y="660" as="targetPoint" />
            <Array as="points">
              <mxPoint x="1605" y="731" />
            </Array>
          </mxGeometry>
        </mxCell>
        <mxCell id="hoeMF-6ozECQFNes8gVZ-138" value="alu_control_e" style="text;html=1;align=center;verticalAlign=middle;resizable=0;points=[];autosize=1;strokeColor=none;fillColor=none;" vertex="1" parent="1">
          <mxGeometry x="1215" y="700" width="100" height="30" as="geometry" />
        </mxCell>
        <mxCell id="hoeMF-6ozECQFNes8gVZ-140" value="src1" style="text;html=1;align=center;verticalAlign=middle;resizable=0;points=[];autosize=1;strokeColor=none;fillColor=none;" vertex="1" parent="1">
          <mxGeometry x="1560" y="860" width="50" height="30" as="geometry" />
        </mxCell>
        <mxCell id="hoeMF-6ozECQFNes8gVZ-141" value="src2" style="text;html=1;align=center;verticalAlign=middle;resizable=0;points=[];autosize=1;strokeColor=none;fillColor=none;" vertex="1" parent="1">
          <mxGeometry x="1550" y="925" width="50" height="30" as="geometry" />
        </mxCell>
        <mxCell id="hoeMF-6ozECQFNes8gVZ-143" value="" style="whiteSpace=wrap;html=1;" vertex="1" parent="1">
          <mxGeometry x="1730" y="540" width="30" height="770" as="geometry" />
        </mxCell>
        <mxCell id="hoeMF-6ozECQFNes8gVZ-144" value="clk" style="triangle;whiteSpace=wrap;html=1;direction=south;" vertex="1" parent="1">
          <mxGeometry x="1730" y="540" width="30" height="25" as="geometry" />
        </mxCell>
        <mxCell id="hoeMF-6ozECQFNes8gVZ-145" value="" style="endArrow=classic;html=1;rounded=0;entryX=-0.104;entryY=0.429;entryDx=0;entryDy=0;entryPerimeter=0;fillColor=#6a00ff;strokeColor=#3700CC;" edge="1" parent="1" target="hoeMF-6ozECQFNes8gVZ-143">
          <mxGeometry width="50" height="50" relative="1" as="geometry">
            <mxPoint x="1650" y="871" as="sourcePoint" />
            <mxPoint x="1880" y="820" as="targetPoint" />
          </mxGeometry>
        </mxCell>
        <mxCell id="hoeMF-6ozECQFNes8gVZ-146" value="flag_e" style="text;html=1;align=center;verticalAlign=middle;resizable=0;points=[];autosize=1;strokeColor=none;fillColor=none;" vertex="1" parent="1">
          <mxGeometry x="1670" y="840" width="60" height="30" as="geometry" />
        </mxCell>
        <mxCell id="hoeMF-6ozECQFNes8gVZ-147" value="" style="endArrow=classic;html=1;rounded=0;" edge="1" parent="1" source="hoeMF-6ozECQFNes8gVZ-134">
          <mxGeometry width="50" height="50" relative="1" as="geometry">
            <mxPoint x="1650" y="972.5" as="sourcePoint" />
            <mxPoint x="1720.7106781186549" y="922.5" as="targetPoint" />
          </mxGeometry>
        </mxCell>
        <mxCell id="hoeMF-6ozECQFNes8gVZ-148" value="alu_out_e" style="text;html=1;align=center;verticalAlign=middle;resizable=0;points=[];autosize=1;strokeColor=none;fillColor=none;" vertex="1" parent="1">
          <mxGeometry x="1650" y="890" width="80" height="30" as="geometry" />
        </mxCell>
        <mxCell id="hoeMF-6ozECQFNes8gVZ-149" value="" style="endArrow=classic;html=1;rounded=0;entryX=1;entryY=0.5;entryDx=0;entryDy=0;fillColor=#0050ef;strokeColor=#001DBC;" edge="1" parent="1" target="hoeMF-6ozECQFNes8gVZ-97">
          <mxGeometry width="50" height="50" relative="1" as="geometry">
            <mxPoint x="1670" y="930" as="sourcePoint" />
            <mxPoint x="1550" y="1300" as="targetPoint" />
            <Array as="points">
              <mxPoint x="1670" y="1470" />
            </Array>
          </mxGeometry>
        </mxCell>
        <mxCell id="hoeMF-6ozECQFNes8gVZ-150" value="" style="endArrow=classic;html=1;rounded=0;exitX=0.856;exitY=-0.035;exitDx=0;exitDy=0;entryX=1;entryY=0.5;entryDx=0;entryDy=0;exitPerimeter=0;" edge="1" parent="1" source="hoeMF-6ozECQFNes8gVZ-114" target="hoeMF-6ozECQFNes8gVZ-102">
          <mxGeometry width="50" height="50" relative="1" as="geometry">
            <mxPoint x="1490" y="1340" as="sourcePoint" />
            <mxPoint x="1540" y="1300" as="targetPoint" />
          </mxGeometry>
        </mxCell>
        <mxCell id="hoeMF-6ozECQFNes8gVZ-151" value="" style="endArrow=classic;html=1;rounded=0;exitX=1;exitY=0.5;exitDx=0;exitDy=0;entryX=-0.104;entryY=0.908;entryDx=0;entryDy=0;entryPerimeter=0;" edge="1" parent="1" source="hoeMF-6ozECQFNes8gVZ-114" target="hoeMF-6ozECQFNes8gVZ-143">
          <mxGeometry width="50" height="50" relative="1" as="geometry">
            <mxPoint x="1550" y="1230" as="sourcePoint" />
            <mxPoint x="1600" y="1180" as="targetPoint" />
          </mxGeometry>
        </mxCell>
        <mxCell id="hoeMF-6ozECQFNes8gVZ-152" value="" style="endArrow=classic;html=1;rounded=0;exitX=0.5;exitY=0;exitDx=0;exitDy=0;entryX=0;entryY=0.726;entryDx=0;entryDy=0;entryPerimeter=0;" edge="1" parent="1" source="hoeMF-6ozECQFNes8gVZ-103" target="hoeMF-6ozECQFNes8gVZ-143">
          <mxGeometry width="50" height="50" relative="1" as="geometry">
            <mxPoint x="1520" y="1120" as="sourcePoint" />
            <mxPoint x="1570" y="1070" as="targetPoint" />
          </mxGeometry>
        </mxCell>
        <mxCell id="hoeMF-6ozECQFNes8gVZ-153" value="" style="endArrow=classic;html=1;rounded=0;entryX=0.959;entryY=0.219;entryDx=0;entryDy=0;entryPerimeter=0;fillColor=#0050ef;strokeColor=#001DBC;" edge="1" parent="1" target="hoeMF-6ozECQFNes8gVZ-97">
          <mxGeometry width="50" height="50" relative="1" as="geometry">
            <mxPoint x="1520" y="1100" as="sourcePoint" />
            <mxPoint x="1500" y="1350" as="targetPoint" />
            <Array as="points">
              <mxPoint x="1520" y="1450" />
            </Array>
          </mxGeometry>
        </mxCell>
        <mxCell id="hoeMF-6ozECQFNes8gVZ-154" value="" style="endArrow=classic;html=1;rounded=0;entryX=-0.104;entryY=0.085;entryDx=0;entryDy=0;entryPerimeter=0;fillColor=#e51400;strokeColor=#B20000;" edge="1" parent="1" target="hoeMF-6ozECQFNes8gVZ-143">
          <mxGeometry width="50" height="50" relative="1" as="geometry">
            <mxPoint x="1460" y="605" as="sourcePoint" />
            <mxPoint x="1520" y="450" as="targetPoint" />
          </mxGeometry>
        </mxCell>
        <mxCell id="hoeMF-6ozECQFNes8gVZ-155" value="" style="endArrow=classic;html=1;rounded=0;exitX=1.061;exitY=0.116;exitDx=0;exitDy=0;exitPerimeter=0;entryX=-0.01;entryY=0.119;entryDx=0;entryDy=0;entryPerimeter=0;fillColor=#e51400;strokeColor=#B20000;" edge="1" parent="1" source="hoeMF-6ozECQFNes8gVZ-73" target="hoeMF-6ozECQFNes8gVZ-143">
          <mxGeometry width="50" height="50" relative="1" as="geometry">
            <mxPoint x="1270" y="650" as="sourcePoint" />
            <mxPoint x="1320" y="600" as="targetPoint" />
          </mxGeometry>
        </mxCell>
        <mxCell id="hoeMF-6ozECQFNes8gVZ-156" value="" style="endArrow=classic;html=1;rounded=0;exitX=1.124;exitY=0.149;exitDx=0;exitDy=0;exitPerimeter=0;entryX=0;entryY=0.149;entryDx=0;entryDy=0;entryPerimeter=0;fillColor=#e51400;strokeColor=#B20000;" edge="1" parent="1" source="hoeMF-6ozECQFNes8gVZ-73" target="hoeMF-6ozECQFNes8gVZ-143">
          <mxGeometry width="50" height="50" relative="1" as="geometry">
            <mxPoint x="1350" y="530" as="sourcePoint" />
            <mxPoint x="1720" y="650" as="targetPoint" />
          </mxGeometry>
        </mxCell>
        <mxCell id="hoeMF-6ozECQFNes8gVZ-157" value="" style="endArrow=classic;html=1;rounded=0;exitX=1.092;exitY=0.195;exitDx=0;exitDy=0;exitPerimeter=0;fillColor=#e51400;strokeColor=#B20000;" edge="1" parent="1" source="hoeMF-6ozECQFNes8gVZ-73">
          <mxGeometry width="50" height="50" relative="1" as="geometry">
            <mxPoint x="1280" y="710" as="sourcePoint" />
            <mxPoint x="1720" y="690" as="targetPoint" />
          </mxGeometry>
        </mxCell>
        <mxCell id="hoeMF-6ozECQFNes8gVZ-158" value="reg_write_e" style="text;html=1;align=center;verticalAlign=middle;resizable=0;points=[];autosize=1;strokeColor=none;fillColor=none;" vertex="1" parent="1">
          <mxGeometry x="1220" y="608" width="90" height="30" as="geometry" />
        </mxCell>
        <mxCell id="hoeMF-6ozECQFNes8gVZ-159" value="mem_to_reg_e" style="text;html=1;align=center;verticalAlign=middle;resizable=0;points=[];autosize=1;strokeColor=none;fillColor=none;" vertex="1" parent="1">
          <mxGeometry x="1230" y="630" width="100" height="30" as="geometry" />
        </mxCell>
        <mxCell id="hoeMF-6ozECQFNes8gVZ-160" value="[3:0]mem_write_e" style="text;html=1;align=center;verticalAlign=middle;resizable=0;points=[];autosize=1;strokeColor=none;fillColor=none;" vertex="1" parent="1">
          <mxGeometry x="1225" y="670" width="120" height="30" as="geometry" />
        </mxCell>
        <mxCell id="hoeMF-6ozECQFNes8gVZ-161" value="write_reg_addr_e" style="text;html=1;align=center;verticalAlign=middle;resizable=0;points=[];autosize=1;strokeColor=none;fillColor=none;" vertex="1" parent="1">
          <mxGeometry x="1630" y="1070" width="120" height="30" as="geometry" />
        </mxCell>
        <mxCell id="hoeMF-6ozECQFNes8gVZ-162" value="" style="endArrow=classic;html=1;rounded=0;entryX=-0.198;entryY=0.638;entryDx=0;entryDy=0;entryPerimeter=0;" edge="1" parent="1" target="hoeMF-6ozECQFNes8gVZ-143">
          <mxGeometry width="50" height="50" relative="1" as="geometry">
            <mxPoint x="1270" y="1030" as="sourcePoint" />
            <mxPoint x="1540" y="1020" as="targetPoint" />
          </mxGeometry>
        </mxCell>
        <mxCell id="hoeMF-6ozECQFNes8gVZ-163" value="pc_branch_e" style="text;html=1;align=center;verticalAlign=middle;resizable=0;points=[];autosize=1;strokeColor=none;fillColor=none;" vertex="1" parent="1">
          <mxGeometry x="1645" y="1210" width="90" height="30" as="geometry" />
        </mxCell>
        <mxCell id="hoeMF-6ozECQFNes8gVZ-164" value="RAM" style="rounded=0;whiteSpace=wrap;html=1;" vertex="1" parent="1">
          <mxGeometry x="2030" y="935" width="140" height="190" as="geometry" />
        </mxCell>
        <mxCell id="hoeMF-6ozECQFNes8gVZ-173" style="edgeStyle=orthogonalEdgeStyle;rounded=0;orthogonalLoop=1;jettySize=auto;html=1;exitX=0.666;exitY=-0.038;exitDx=0;exitDy=0;entryX=-0.063;entryY=0.552;entryDx=0;entryDy=0;entryPerimeter=0;exitPerimeter=0;" edge="1" parent="1" source="hoeMF-6ozECQFNes8gVZ-165" target="hoeMF-6ozECQFNes8gVZ-172">
          <mxGeometry relative="1" as="geometry" />
        </mxCell>
        <mxCell id="hoeMF-6ozECQFNes8gVZ-165" value="choose&lt;br&gt;RAM_aadr" style="shape=trapezoid;perimeter=trapezoidPerimeter;whiteSpace=wrap;html=1;fixedSize=1;direction=south;" vertex="1" parent="1">
          <mxGeometry x="1880" y="870" width="60" height="130" as="geometry" />
        </mxCell>
        <mxCell id="hoeMF-6ozECQFNes8gVZ-166" value="" style="endArrow=classic;html=1;rounded=0;exitX=1;exitY=0.5;exitDx=0;exitDy=0;" edge="1" parent="1" source="hoeMF-6ozECQFNes8gVZ-143">
          <mxGeometry width="50" height="50" relative="1" as="geometry">
            <mxPoint x="1770" y="920" as="sourcePoint" />
            <mxPoint x="1870" y="925" as="targetPoint" />
          </mxGeometry>
        </mxCell>
        <mxCell id="hoeMF-6ozECQFNes8gVZ-167" value="alu_out_m" style="text;html=1;align=center;verticalAlign=middle;resizable=0;points=[];autosize=1;strokeColor=none;fillColor=none;" vertex="1" parent="1">
          <mxGeometry x="1755" y="925" width="80" height="30" as="geometry" />
        </mxCell>
        <mxCell id="hoeMF-6ozECQFNes8gVZ-168" value="" style="endArrow=classic;html=1;rounded=0;entryX=0.25;entryY=1;entryDx=0;entryDy=0;" edge="1" parent="1" target="hoeMF-6ozECQFNes8gVZ-165">
          <mxGeometry width="50" height="50" relative="1" as="geometry">
            <mxPoint x="1690" y="920" as="sourcePoint" />
            <mxPoint x="1980" y="610" as="targetPoint" />
            <Array as="points">
              <mxPoint x="1690" y="420" />
              <mxPoint x="1850" y="420" />
              <mxPoint x="1850" y="903" />
            </Array>
          </mxGeometry>
        </mxCell>
        <mxCell id="hoeMF-6ozECQFNes8gVZ-169" value="alu_out_e" style="text;html=1;align=center;verticalAlign=middle;resizable=0;points=[];autosize=1;strokeColor=none;fillColor=none;" vertex="1" parent="1">
          <mxGeometry x="1835" y="840" width="80" height="30" as="geometry" />
        </mxCell>
        <mxCell id="hoeMF-6ozECQFNes8gVZ-170" value="" style="endArrow=classic;html=1;rounded=0;entryX=0;entryY=0.25;entryDx=0;entryDy=0;exitX=1;exitY=0.195;exitDx=0;exitDy=0;exitPerimeter=0;fillColor=#e51400;strokeColor=#B20000;" edge="1" parent="1" source="hoeMF-6ozECQFNes8gVZ-143" target="hoeMF-6ozECQFNes8gVZ-165">
          <mxGeometry width="50" height="50" relative="1" as="geometry">
            <mxPoint x="2080" y="640" as="sourcePoint" />
            <mxPoint x="2130" y="590" as="targetPoint" />
            <Array as="points">
              <mxPoint x="1922" y="690" />
            </Array>
          </mxGeometry>
        </mxCell>
        <mxCell id="hoeMF-6ozECQFNes8gVZ-171" value="mem_to_reg_m" style="text;html=1;align=center;verticalAlign=middle;resizable=0;points=[];autosize=1;strokeColor=none;fillColor=none;" vertex="1" parent="1">
          <mxGeometry x="1755" y="630" width="110" height="30" as="geometry" />
        </mxCell>
        <mxCell id="hoeMF-6ozECQFNes8gVZ-172" value="addr" style="text;html=1;align=center;verticalAlign=middle;resizable=0;points=[];autosize=1;strokeColor=none;fillColor=none;" vertex="1" parent="1">
          <mxGeometry x="2030" y="940" width="50" height="30" as="geometry" />
        </mxCell>
        <mxCell id="hoeMF-6ozECQFNes8gVZ-174" value="wd" style="text;html=1;align=center;verticalAlign=middle;resizable=0;points=[];autosize=1;strokeColor=none;fillColor=none;" vertex="1" parent="1">
          <mxGeometry x="2030" y="1012.5" width="40" height="30" as="geometry" />
        </mxCell>
        <mxCell id="hoeMF-6ozECQFNes8gVZ-175" value="write_data_e" style="text;html=1;align=center;verticalAlign=middle;resizable=0;points=[];autosize=1;strokeColor=none;fillColor=none;" vertex="1" parent="1">
          <mxGeometry x="1650" y="1000" width="90" height="30" as="geometry" />
        </mxCell>
        <mxCell id="hoeMF-6ozECQFNes8gVZ-176" value="" style="endArrow=classic;html=1;rounded=0;exitX=1.025;exitY=0.643;exitDx=0;exitDy=0;exitPerimeter=0;entryX=0;entryY=0.5;entryDx=0;entryDy=0;" edge="1" parent="1" source="hoeMF-6ozECQFNes8gVZ-143" target="hoeMF-6ozECQFNes8gVZ-164">
          <mxGeometry width="50" height="50" relative="1" as="geometry">
            <mxPoint x="1850" y="1070" as="sourcePoint" />
            <mxPoint x="1900" y="1020" as="targetPoint" />
          </mxGeometry>
        </mxCell>
        <mxCell id="hoeMF-6ozECQFNes8gVZ-177" value="write_data_m" style="text;html=1;align=center;verticalAlign=middle;resizable=0;points=[];autosize=1;strokeColor=none;fillColor=none;" vertex="1" parent="1">
          <mxGeometry x="1755" y="1000" width="100" height="30" as="geometry" />
        </mxCell>
        <mxCell id="hoeMF-6ozECQFNes8gVZ-179" value="" style="whiteSpace=wrap;html=1;" vertex="1" parent="1">
          <mxGeometry x="2330" y="537.5" width="30" height="770" as="geometry" />
        </mxCell>
        <mxCell id="hoeMF-6ozECQFNes8gVZ-180" value="clk" style="triangle;whiteSpace=wrap;html=1;direction=south;" vertex="1" parent="1">
          <mxGeometry x="2330" y="537.5" width="30" height="25" as="geometry" />
        </mxCell>
        <mxCell id="hoeMF-6ozECQFNes8gVZ-181" value="" style="endArrow=classic;html=1;rounded=0;exitX=1.12;exitY=0.731;exitDx=0;exitDy=0;exitPerimeter=0;entryX=-0.151;entryY=0.792;entryDx=0;entryDy=0;entryPerimeter=0;" edge="1" parent="1" source="hoeMF-6ozECQFNes8gVZ-143" target="hoeMF-6ozECQFNes8gVZ-179">
          <mxGeometry width="50" height="50" relative="1" as="geometry">
            <mxPoint x="1830" y="1210" as="sourcePoint" />
            <mxPoint x="1880" y="1160" as="targetPoint" />
            <Array as="points">
              <mxPoint x="1810" y="1103" />
              <mxPoint x="1810" y="1150" />
            </Array>
          </mxGeometry>
        </mxCell>
        <mxCell id="hoeMF-6ozECQFNes8gVZ-182" value="write_reg_addr_m" style="text;html=1;align=center;verticalAlign=middle;resizable=0;points=[];autosize=1;strokeColor=none;fillColor=none;" vertex="1" parent="1">
          <mxGeometry x="2210" y="1150" width="120" height="30" as="geometry" />
        </mxCell>
        <mxCell id="hoeMF-6ozECQFNes8gVZ-189" style="edgeStyle=orthogonalEdgeStyle;rounded=0;orthogonalLoop=1;jettySize=auto;html=1;exitX=0.5;exitY=0;exitDx=0;exitDy=0;entryX=0.037;entryY=0.387;entryDx=0;entryDy=0;entryPerimeter=0;" edge="1" parent="1" source="hoeMF-6ozECQFNes8gVZ-183" target="hoeMF-6ozECQFNes8gVZ-179">
          <mxGeometry relative="1" as="geometry" />
        </mxCell>
        <mxCell id="hoeMF-6ozECQFNes8gVZ-183" value="2-1mux" style="shape=trapezoid;perimeter=trapezoidPerimeter;whiteSpace=wrap;html=1;fixedSize=1;direction=south;" vertex="1" parent="1">
          <mxGeometry x="2220" y="790" width="50" height="90" as="geometry" />
        </mxCell>
        <mxCell id="hoeMF-6ozECQFNes8gVZ-184" value="" style="endArrow=classic;html=1;rounded=0;exitX=1;exitY=0.5;exitDx=0;exitDy=0;entryX=0.75;entryY=1;entryDx=0;entryDy=0;" edge="1" parent="1" source="hoeMF-6ozECQFNes8gVZ-164" target="hoeMF-6ozECQFNes8gVZ-183">
          <mxGeometry width="50" height="50" relative="1" as="geometry">
            <mxPoint x="2180" y="1020" as="sourcePoint" />
            <mxPoint x="2230" y="970" as="targetPoint" />
            <Array as="points">
              <mxPoint x="2190" y="1030" />
              <mxPoint x="2190" y="858" />
            </Array>
          </mxGeometry>
        </mxCell>
        <mxCell id="hoeMF-6ozECQFNes8gVZ-185" value="rd" style="text;html=1;align=center;verticalAlign=middle;resizable=0;points=[];autosize=1;strokeColor=none;fillColor=none;" vertex="1" parent="1">
          <mxGeometry x="2140" y="1012.5" width="30" height="30" as="geometry" />
        </mxCell>
        <mxCell id="hoeMF-6ozECQFNes8gVZ-186" value="" style="endArrow=classic;html=1;rounded=0;entryX=0.25;entryY=1;entryDx=0;entryDy=0;" edge="1" parent="1" target="hoeMF-6ozECQFNes8gVZ-183">
          <mxGeometry width="50" height="50" relative="1" as="geometry">
            <mxPoint x="1830" y="920" as="sourcePoint" />
            <mxPoint x="2110" y="750" as="targetPoint" />
            <Array as="points">
              <mxPoint x="1830" y="810" />
            </Array>
          </mxGeometry>
        </mxCell>
        <mxCell id="hoeMF-6ozECQFNes8gVZ-187" value="mem_write_m" style="text;html=1;align=center;verticalAlign=middle;resizable=0;points=[];autosize=1;strokeColor=none;fillColor=none;" vertex="1" parent="1">
          <mxGeometry x="1750" y="690" width="100" height="30" as="geometry" />
        </mxCell>
        <mxCell id="hoeMF-6ozECQFNes8gVZ-188" value="" style="endArrow=classic;html=1;rounded=0;exitX=0.045;exitY=1;exitDx=0;exitDy=0;exitPerimeter=0;entryX=0;entryY=0.5;entryDx=0;entryDy=0;fillColor=#e51400;strokeColor=#B20000;" edge="1" parent="1" source="hoeMF-6ozECQFNes8gVZ-171" target="hoeMF-6ozECQFNes8gVZ-183">
          <mxGeometry width="50" height="50" relative="1" as="geometry">
            <mxPoint x="1980" y="630" as="sourcePoint" />
            <mxPoint x="2030" y="580" as="targetPoint" />
            <Array as="points">
              <mxPoint x="2245" y="660" />
            </Array>
          </mxGeometry>
        </mxCell>
        <mxCell id="hoeMF-6ozECQFNes8gVZ-191" value="result_m" style="text;html=1;align=center;verticalAlign=middle;resizable=0;points=[];autosize=1;strokeColor=none;fillColor=none;" vertex="1" parent="1">
          <mxGeometry x="2270" y="800" width="70" height="30" as="geometry" />
        </mxCell>
        <mxCell id="hoeMF-6ozECQFNes8gVZ-192" value="" style="endArrow=classic;html=1;rounded=0;entryX=0.959;entryY=0.725;entryDx=0;entryDy=0;entryPerimeter=0;fillColor=#0050ef;strokeColor=#001DBC;" edge="1" parent="1" target="hoeMF-6ozECQFNes8gVZ-97">
          <mxGeometry width="50" height="50" relative="1" as="geometry">
            <mxPoint x="1810" y="1150" as="sourcePoint" />
            <mxPoint x="1930" y="1280" as="targetPoint" />
            <Array as="points">
              <mxPoint x="1810" y="1488" />
            </Array>
          </mxGeometry>
        </mxCell>
        <mxCell id="hoeMF-6ozECQFNes8gVZ-193" value="" style="endArrow=classic;html=1;rounded=0;entryX=1;entryY=1;entryDx=0;entryDy=0;fillColor=#0050ef;strokeColor=#001DBC;" edge="1" parent="1" target="hoeMF-6ozECQFNes8gVZ-97">
          <mxGeometry width="50" height="50" relative="1" as="geometry">
            <mxPoint x="2300" y="840" as="sourcePoint" />
            <mxPoint x="2310" y="990" as="targetPoint" />
            <Array as="points">
              <mxPoint x="2300" y="1498" />
            </Array>
          </mxGeometry>
        </mxCell>
        <mxCell id="hoeMF-6ozECQFNes8gVZ-194" value="" style="endArrow=classic;html=1;rounded=0;entryX=0.25;entryY=1;entryDx=0;entryDy=0;" edge="1" parent="1" target="hoeMF-6ozECQFNes8gVZ-1">
          <mxGeometry width="50" height="50" relative="1" as="geometry">
            <mxPoint x="1770" y="1240" as="sourcePoint" />
            <mxPoint x="380" y="1580" as="targetPoint" />
            <Array as="points">
              <mxPoint x="1790" y="1240" />
              <mxPoint x="1790" y="1370" />
              <mxPoint x="30" y="1380" />
              <mxPoint x="30" y="1095" />
            </Array>
          </mxGeometry>
        </mxCell>
        <mxCell id="hoeMF-6ozECQFNes8gVZ-195" value="judge_is_jmp" style="whiteSpace=wrap;html=1;" vertex="1" parent="1">
          <mxGeometry x="1950" y="520" width="90" height="100" as="geometry" />
        </mxCell>
        <mxCell id="hoeMF-6ozECQFNes8gVZ-196" value="" style="endArrow=classic;html=1;rounded=0;exitX=0.07;exitY=-0.137;exitDx=0;exitDy=0;exitPerimeter=0;entryX=-0.088;entryY=0.117;entryDx=0;entryDy=0;entryPerimeter=0;fillColor=#e51400;strokeColor=#B20000;" edge="1" parent="1" source="hoeMF-6ozECQFNes8gVZ-171" target="hoeMF-6ozECQFNes8gVZ-179">
          <mxGeometry width="50" height="50" relative="1" as="geometry">
            <mxPoint x="1960" y="720" as="sourcePoint" />
            <mxPoint x="2010" y="670" as="targetPoint" />
          </mxGeometry>
        </mxCell>
        <mxCell id="hoeMF-6ozECQFNes8gVZ-197" value="" style="endArrow=classic;html=1;rounded=0;exitX=1.151;exitY=0.082;exitDx=0;exitDy=0;exitPerimeter=0;entryX=-0.063;entryY=0.868;entryDx=0;entryDy=0;entryPerimeter=0;fillColor=#e51400;strokeColor=#B20000;" edge="1" parent="1" source="hoeMF-6ozECQFNes8gVZ-143" target="hoeMF-6ozECQFNes8gVZ-195">
          <mxGeometry width="50" height="50" relative="1" as="geometry">
            <mxPoint x="2070" y="440" as="sourcePoint" />
            <mxPoint x="2120" y="390" as="targetPoint" />
          </mxGeometry>
        </mxCell>
        <mxCell id="hoeMF-6ozECQFNes8gVZ-198" value="branch_m" style="text;html=1;align=center;verticalAlign=middle;resizable=0;points=[];autosize=1;strokeColor=none;fillColor=none;" vertex="1" parent="1">
          <mxGeometry x="1755" y="570" width="80" height="30" as="geometry" />
        </mxCell>
        <mxCell id="hoeMF-6ozECQFNes8gVZ-199" value="reg_write_m" style="text;html=1;align=center;verticalAlign=middle;resizable=0;points=[];autosize=1;strokeColor=none;fillColor=none;" vertex="1" parent="1">
          <mxGeometry x="2240" y="590" width="90" height="30" as="geometry" />
        </mxCell>
        <mxCell id="hoeMF-6ozECQFNes8gVZ-200" value="" style="endArrow=classic;html=1;rounded=0;entryX=0.5;entryY=1;entryDx=0;entryDy=0;fillColor=#6a00ff;strokeColor=#3700CC;" edge="1" parent="1" target="hoeMF-6ozECQFNes8gVZ-195">
          <mxGeometry width="50" height="50" relative="1" as="geometry">
            <mxPoint x="1760" y="870" as="sourcePoint" />
            <mxPoint x="1810" y="820" as="targetPoint" />
            <Array as="points">
              <mxPoint x="1995" y="870" />
            </Array>
          </mxGeometry>
        </mxCell>
        <mxCell id="hoeMF-6ozECQFNes8gVZ-201" value="" style="endArrow=classic;html=1;rounded=0;exitX=0.5;exitY=0;exitDx=0;exitDy=0;entryX=0;entryY=0.75;entryDx=0;entryDy=0;fillColor=#6a00ff;strokeColor=#3700CC;" edge="1" parent="1" source="hoeMF-6ozECQFNes8gVZ-195" target="hoeMF-6ozECQFNes8gVZ-1">
          <mxGeometry width="50" height="50" relative="1" as="geometry">
            <mxPoint x="2000" y="440" as="sourcePoint" />
            <mxPoint x="470" y="590" as="targetPoint" />
            <Array as="points">
              <mxPoint x="1995" y="490" />
              <mxPoint x="92" y="490" />
            </Array>
          </mxGeometry>
        </mxCell>
        <mxCell id="hoeMF-6ozECQFNes8gVZ-202" value="" style="endArrow=classic;html=1;rounded=0;exitX=1.027;exitY=0.112;exitDx=0;exitDy=0;exitPerimeter=0;entryX=0.41;entryY=-0.193;entryDx=0;entryDy=0;entryPerimeter=0;fillColor=#fa6800;strokeColor=#C73500;" edge="1" parent="1" source="hoeMF-6ozECQFNes8gVZ-179" target="hoeMF-6ozECQFNes8gVZ-55">
          <mxGeometry width="50" height="50" relative="1" as="geometry">
            <mxPoint x="2470" y="630" as="sourcePoint" />
            <mxPoint x="2520" y="580" as="targetPoint" />
            <Array as="points">
              <mxPoint x="2430" y="624" />
              <mxPoint x="2430" y="380" />
              <mxPoint x="906" y="390" />
            </Array>
          </mxGeometry>
        </mxCell>
        <mxCell id="hoeMF-6ozECQFNes8gVZ-203" value="reg_write_w" style="text;html=1;align=center;verticalAlign=middle;resizable=0;points=[];autosize=1;strokeColor=none;fillColor=none;" vertex="1" parent="1">
          <mxGeometry x="2360" y="620" width="90" height="30" as="geometry" />
        </mxCell>
        <mxCell id="hoeMF-6ozECQFNes8gVZ-204" value="" style="endArrow=classic;html=1;rounded=0;exitX=0.973;exitY=0.392;exitDx=0;exitDy=0;exitPerimeter=0;entryX=0.53;entryY=1.213;entryDx=0;entryDy=0;entryPerimeter=0;fillColor=#fa6800;strokeColor=#C73500;" edge="1" parent="1" source="hoeMF-6ozECQFNes8gVZ-179" target="hoeMF-6ozECQFNes8gVZ-56">
          <mxGeometry width="50" height="50" relative="1" as="geometry">
            <mxPoint x="2480" y="850" as="sourcePoint" />
            <mxPoint x="2530" y="800" as="targetPoint" />
            <Array as="points">
              <mxPoint x="2420" y="839" />
              <mxPoint x="2420" y="1520" />
              <mxPoint x="960" y="1530" />
            </Array>
          </mxGeometry>
        </mxCell>
        <mxCell id="hoeMF-6ozECQFNes8gVZ-205" value="" style="endArrow=classic;html=1;rounded=0;exitX=1.08;exitY=0.793;exitDx=0;exitDy=0;exitPerimeter=0;entryX=0.36;entryY=1.16;entryDx=0;entryDy=0;entryPerimeter=0;fillColor=#fa6800;strokeColor=#C73500;" edge="1" parent="1" source="hoeMF-6ozECQFNes8gVZ-179" target="hoeMF-6ozECQFNes8gVZ-54">
          <mxGeometry width="50" height="50" relative="1" as="geometry">
            <mxPoint x="2500" y="1150" as="sourcePoint" />
            <mxPoint x="2550" y="1100" as="targetPoint" />
            <Array as="points">
              <mxPoint x="2390" y="1148" />
              <mxPoint x="2390" y="1570" />
              <mxPoint x="875" y="1570" />
            </Array>
          </mxGeometry>
        </mxCell>
      </root>
    </mxGraphModel>
  </diagram>
</mxfile>
